HIERARCHY
ROOT Hips
{
 OFFSET 0.000000 0.000000 0.000000
 CHANNELS 6 Xposition Yposition Zposition Yrotation Xrotation Zrotation
 JOINT Chest
 {
  OFFSET 0.000000 10.932484 0.001155
  CHANNELS 3 Yrotation Xrotation Zrotation
  JOINT Chest2
  {
   OFFSET 0.000000 12.093805 -0.002099
   CHANNELS 3 Yrotation Xrotation Zrotation
   JOINT Chest3
   {
    OFFSET 0.000000 10.927800 0.000000
    CHANNELS 3 Yrotation Xrotation Zrotation
    JOINT Chest4
    {
     OFFSET 0.000000 10.927800 0.000000
     CHANNELS 3 Yrotation Xrotation Zrotation
     JOINT Neck
     {
      OFFSET 0.000000 15.355144 0.000000
      CHANNELS 3 Yrotation Xrotation Zrotation
      JOINT Head
      {
       OFFSET 0.000000 10.170446 -0.004991
       CHANNELS 3 Yrotation Xrotation Zrotation
       End Site
       {
        OFFSET 0.000000 19.463738 -0.002607
       }
      }
     }
     JOINT RightCollar
     {
      OFFSET -3.333126 8.566406 0.000000
      CHANNELS 3 Yrotation Xrotation Zrotation
      JOINT RightShoulder
      {
       OFFSET -15.529370 0.000000 0.000000
       CHANNELS 3 Yrotation Xrotation Zrotation
       JOINT RightElbow
       {
        OFFSET 0.000000 -33.145213 0.000000
        CHANNELS 3 Yrotation Xrotation Zrotation
        JOINT RightWrist
        {
         OFFSET 0.000000 -27.120720 -0.000000
         CHANNELS 3 Yrotation Xrotation Zrotation
         End Site
         {
          OFFSET 0.000000 -20.306483 0.000000
         }
        }
       }
      }
     }
     JOINT LeftCollar
     {
      OFFSET 3.333126 8.566406 0.000000
      CHANNELS 3 Yrotation Xrotation Zrotation
      JOINT LeftShoulder
      {
       OFFSET 15.529370 0.000000 0.000000
       CHANNELS 3 Yrotation Xrotation Zrotation
       JOINT LeftElbow
       {
        OFFSET 0.000000 -33.145213 0.000000
        CHANNELS 3 Yrotation Xrotation Zrotation
        JOINT LeftWrist
        {
         OFFSET 0.000000 -27.120720 -0.000000
         CHANNELS 3 Yrotation Xrotation Zrotation
         End Site
         {
          OFFSET 0.000000 -20.306483 0.000000
         }
        }
       }
      }
     }
    }
   }
  }
 }
 JOINT RightHip
 {
  OFFSET -8.869179 -0.005661 -0.000578
  CHANNELS 3 Yrotation Xrotation Zrotation
  JOINT RightKnee
  {
   OFFSET 0.000000 -45.835245 0.000547
   CHANNELS 3 Yrotation Xrotation Zrotation
   JOINT RightAnkle
   {
    OFFSET 0.000000 -44.890236 0.000924
    CHANNELS 3 Yrotation Xrotation Zrotation
    JOINT RightToe
    {
     OFFSET 0.000000 -8.082775 18.351045
     CHANNELS 3 Yrotation Xrotation Zrotation
     End Site
     {
      OFFSET 0.000000 -1.681997 7.345339
     }
    }
   }
  }
 }
 JOINT LeftHip
 {
  OFFSET 8.869179 -0.005661 -0.000578
  CHANNELS 3 Yrotation Xrotation Zrotation
  JOINT LeftKnee
  {
   OFFSET 0.000000 -45.835245 0.000547
   CHANNELS 3 Yrotation Xrotation Zrotation
   JOINT LeftAnkle
   {
    OFFSET 0.000000 -44.890236 0.000924
    CHANNELS 3 Yrotation Xrotation Zrotation
    JOINT LeftToe
    {
     OFFSET 0.000000 -8.082775 18.351045
     CHANNELS 3 Yrotation Xrotation Zrotation
     End Site
     {
      OFFSET 0.000000 -1.681997 7.345339
     }
    }
   }
  }
 }
}
MOTION
Frames: 12
Frame Time: 0.008333
284.332161 73.054636 194.170962 -29.580859 7.660830 -3.511320 0.990818 17.637306 1.716785 0.368712 7.895083 0.539181 0.368712 7.895083 0.539181 0.269090 5.921644 0.398953 -0.656232 17.915442 1.914298 -1.850879 -2.870350 3.746220 -1.283641 0.006697 6.849386 7.210376 -17.391444 -21.700170 1.584580 -12.166177 5.322576 20.310257 -3.344439 -18.735866 -1.825161 -1.418964 -6.496549 -20.439955 -23.460108 25.891958 5.680094 -3.643038 5.248704 -16.439500 -11.448995 12.090250 -45.405547 -60.356260 33.029350 -14.336117 81.230186 -15.444520 -1.775916 -24.622264 -8.039094 -0.182195 0.213023 0.359760 32.452583 -62.944890 -23.388680 -123.952138 87.996680 -117.809806 6.101993 -33.615791 4.801339 0.230569 -0.318901 0.118723
284.415192 72.530055 194.019595 -29.565695 7.351921 -3.454318 0.994613 17.753040 1.552748 0.375112 7.923575 0.528222 0.375112 7.923575 0.528222 0.273997 5.943013 0.390641 -0.634972 17.912651 1.971225 -1.830884 -2.874441 3.844013 -1.268591 -0.039379 6.869167 7.275696 -17.269339 -21.712656 1.645925 -12.120225 5.354256 20.153449 -3.297311 -18.555149 -1.852344 -1.397732 -6.456530 -20.540543 -23.531487 26.044801 5.456249 -3.565911 5.240253 -16.521877 -11.559367 11.930884 -45.482278 -60.784637 33.128089 -16.107424 81.990329 -17.163536 -1.873725 -24.699922 -8.109640 -0.169320 0.173370 0.345340 32.612928 -63.173892 -23.680503 -142.085858 87.698310 -135.995560 6.156182 -34.001583 4.806392 0.135214 -0.133141 0.057092
284.475987 71.968899 193.844087 -29.524720 7.100487 -3.514307 1.009862 17.802854 1.513058 0.381208 7.951107 0.515713 0.381208 7.951107 0.515713 0.278697 5.963659 0.381174 -0.612975 17.909236 2.027252 -1.809251 -2.879742 3.939917 -1.244759 -0.101841 6.882526 7.335371 -17.113433 -21.706817 1.719941 -12.097343 5.363892 19.936913 -3.235887 -18.320207 -1.876009 -1.392052 -6.412909 -20.653260 -23.584942 26.206639 5.277781 -3.475969 5.271880 -16.694430 -11.678015 11.704858 -45.692667 -61.040170 33.329984 -17.585682 82.568724 -18.652873 -1.888094 -24.883769 -8.051167 -0.357285 0.311775 0.229223 32.703472 -63.643559 -23.886236 -155.398799 87.064229 -149.352161 6.266556 -34.210013 4.743233 0.140650 -0.135946 0.036690
284.525872 71.459119 193.666081 -29.478654 6.834853 -3.589102 1.033586 17.863886 1.492537 0.385857 7.982491 0.502000 0.385857 7.982491 0.502000 0.282328 5.987192 0.370820 -0.592989 17.900043 2.084145 -1.791822 -2.895655 4.038260 -1.218650 -0.191796 6.899533 7.407317 -16.928530 -21.707639 1.798624 -12.098574 5.348919 19.681745 -3.159572 -17.999234 -1.904950 -1.403728 -6.349513 -20.767141 -23.639429 26.365618 5.069462 -3.416036 5.305319 -16.874617 -11.752848 11.447737 -46.053564 -61.377559 33.710195 -20.320986 83.279821 -21.355047 -1.980216 -24.979415 -8.059351 -0.375426 0.307759 0.188178 32.731962 -64.093952 -24.011710 -162.600318 86.351227 -156.592960 6.359959 -34.379432 4.716870 0.146928 -0.143842 0.012415
284.589483 70.973811 193.501357 -29.440142 6.587199 -3.655794 1.073514 17.904288 1.461391 0.389023 8.015295 0.486475 0.389023 8.015295 0.486475 0.284872 6.011788 0.359127 -0.575972 17.885465 2.140021 -1.779722 -2.921472 4.135886 -1.195120 -0.297946 6.919637 7.496707 -16.723220 -21.703629 1.881867 -12.119412 5.323333 19.415008 -3.065646 -17.613702 -1.940891 -1.433087 -6.269670 -20.899989 -23.682486 26.543688 4.931298 -3.332567 5.360460 -17.119064 -11.846886 11.154344 -46.392183 -61.744861 34.105231 -24.014028 83.947346 -24.986163 -1.987907 -25.090614 -8.081316 -0.443698 0.344342 0.131399 32.809753 -64.527501 -24.180412 -166.954485 85.623756 -161.001849 6.492336 -34.537778 4.711267 0.156374 -0.155979 -0.012693
284.659341 70.497588 193.345042 -29.392871 6.328686 -3.707500 1.096961 17.956781 1.422499 0.390539 8.049706 0.470836 0.390539 8.049706 0.470836 0.286183 6.037587 0.347370 -0.560615 17.868793 2.187579 -1.767987 -2.951387 4.218818 -1.155576 -0.417513 6.919413 7.591990 -16.501002 -21.701515 1.966661 -12.164354 5.312396 19.172470 -2.961133 -17.172562 -1.976503 -1.469517 -6.199584 -21.020273 -23.735791 26.722710 4.762753 -3.269325 5.409992 -17.351681 -11.916108 10.873239 -46.699899 -62.109640 34.450495 -28.359513 84.568733 -29.262736 -2.032097 -25.156253 -8.100477 -0.497433 0.355335 0.087806 32.922944 -64.923283 -24.383452 -170.076296 84.906430 -164.172144 6.566125 -34.681706 4.747554 0.165790 -0.167124 -0.037199
284.735882 70.030638 193.195080 -29.333981 6.067707 -3.748251 1.115879 18.011267 1.375143 0.392552 8.084186 0.452912 0.392552 8.084186 0.452912 0.287897 6.063437 0.333895 -0.546233 17.855293 2.233210 -1.757297 -2.975433 4.298441 -1.118937 -0.538181 6.924760 7.694510 -16.278458 -21.719515 2.047624 -12.237155 5.312283 18.986608 -2.855372 -16.663636 -2.025098 -1.509519 -6.107263 -21.131864 -23.806395 26.891768 4.639025 -3.177407 5.490647 -17.605030 -12.021738 10.589446 -46.990120 -62.466604 34.759296 -33.517985 85.134124 -34.358378 -2.081070 -25.212800 -8.112981 -0.550532 0.372185 0.049720 33.044070 -65.295366 -24.607789 -172.568451 84.207981 -166.714778 6.620589 -34.812835 4.793878 0.176806 -0.178220 -0.058022
284.818458 69.573551 193.043795 -29.290684 5.822517 -3.784989 1.149080 18.047642 1.329758 0.393778 8.120228 0.436724 0.393778 8.120228 0.436724 0.289000 6.090458 0.321729 -0.534029 17.843442 2.268903 -1.747238 -2.996672 4.360448 -1.087177 -0.647867 6.918501 7.821354 -16.068147 -21.756031 2.111946 -12.317292 5.347654 18.860150 -2.764262 -16.130469 -2.063096 -1.550706 -6.025434 -21.235273 -23.902230 27.057677 4.468431 -3.091903 5.567412 -17.813725 -12.131397 10.350921 -47.274945 -62.839244 35.080651 -39.687824 85.646578 -40.475006 -2.015592 -25.254150 -8.168836 -0.605144 0.404629 0.017253 33.229814 -65.668144 -24.870215 -174.606773 83.529450 -168.796613 6.507734 -34.917503 4.927032 0.183408 -0.187368 -0.075876
284.903562 69.124153 192.900153 -29.224188 5.551597 -3.810172 1.159141 18.112347 1.284993 0.393689 8.156804 0.421769 0.393689 8.156804 0.421769 0.289103 6.117880 0.310504 -0.527010 17.829878 2.299039 -1.744937 -3.021069 4.414013 -1.054861 -0.757388 6.903092 7.962874 -15.869103 -21.809861 2.163801 -12.395633 5.414252 18.812165 -2.679529 -15.570389 -2.104166 -1.594089 -5.943364 -21.337488 -24.033906 27.208246 4.339046 -2.955995 5.679566 -18.022357 -12.293257 10.137556 -47.485387 -63.198198 35.323320 -47.077063 86.079762 -47.822359 -2.022270 -25.277671 -8.178370 -0.653463 0.426874 -0.011478 33.375053 -66.000224 -25.119252 -176.447324 82.868401 -170.681456 6.435116 -35.013457 5.026224 0.193640 -0.199767 -0.087496
284.996834 68.682473 192.761543 -29.156375 5.279921 -3.828577 1.165662 18.176790 1.235390 0.393281 8.193106 0.407370 0.393281 8.193106 0.407370 0.288961 6.145097 0.299700 -0.517542 17.819856 2.323219 -1.735998 -3.039204 4.455679 -1.026365 -0.861511 6.892871 8.126910 -15.692359 -21.869429 2.195692 -12.464527 5.494170 18.842287 -2.597234 -14.989241 -2.138289 -1.635099 -5.866315 -21.423044 -24.199867 27.347211 4.173968 -2.814580 5.803174 -18.166250 -12.448844 9.964486 -47.704248 -63.542204 35.585391 -55.762230 86.418792 -56.500328 -2.148678 -25.304201 -8.124145 -0.704941 0.449845 -0.040318 33.532464 -66.315549 -25.390290 -177.966567 82.224916 -172.235029 6.290422 -35.092047 5.171679 0.204751 -0.208643 -0.100888
285.096093 68.286608 192.622304 -29.104762 5.026102 -3.832144 1.182234 18.217346 1.179272 0.391902 8.228760 0.394747 0.391902 8.228760 0.394747 0.288072 6.171828 0.290240 -0.513486 17.809449 2.338694 -1.734123 -3.058137 4.483140 -0.989985 -0.964930 6.875609 8.294259 -15.534377 -21.955572 2.215801 -12.512139 5.601810 18.945459 -2.514295 -14.380182 -2.176277 -1.681873 -5.793828 -21.505660 -24.379621 27.471882 4.068252 -2.646898 5.950019 -18.292602 -12.609236 9.824824 -47.929302 -63.880295 35.878409 -65.302206 86.644588 -66.073593 -2.260602 -25.315058 -8.062839 -0.769923 0.477046 -0.069011 33.785515 -66.648648 -25.750178 -179.160195 81.558822 -173.475429 6.258426 -35.196930 5.286349 0.217324 -0.201687 -0.121777
285.195653 67.874373 192.488055 -29.048177 4.749097 -3.840073 1.192104 18.273358 1.137168 0.389226 8.264817 0.383838 0.389226 8.264817 0.383838 0.286188 6.198862 0.282081 -0.511514 17.798205 2.345116 -1.733083 -3.078860 4.494649 -0.950587 -1.070683 6.849183 8.458722 -15.396238 -22.049096 2.259941 -12.552640 5.717015 19.098928 -2.425700 -13.744643 -2.198672 -1.727534 -5.740290 -21.581968 -24.566712 27.591009 3.943777 -2.496955 6.088811 -18.359651 -12.726739 9.726245 -48.157119 -64.188467 36.173146 -75.637868 86.756157 -76.464225 -2.401179 -25.313761 -7.995225 -0.815958 0.497905 -0.085621 33.979077 -66.938307 -26.033790 -179.988101 80.944321 -174.332098 6.290293 -35.276495 5.385623 0.228467 -0.195457 -0.158769
